<?xml version="1.0" encoding="UTF-8"?> <svg xmlns="http://www.w3.org/2000/svg" width="185" height="46" viewBox="0 0 185 46" fill="none"><g clip-path="url(#clip0_3529_31191)"><path d="M37.9971 8V38H7.59943V45.5H45.5966V8H37.9971ZM37.9971 8V0.5H7.59943C3.34375 0.5 0 3.9 0 8V38H7.59943V11.6C7.59943 9.7 9.22064 8.1 11.1458 8.1L37.9971 8Z" fill="url(#paint0_linear_3529_31191)"></path><path d="M67.3815 20.6001C65.659 20.6001 64.1391 20.2001 62.7205 19.5001C61.4033 18.8001 60.2887 17.7001 59.4781 16.4001C58.6675 15.1001 58.3635 13.7001 58.3635 12.1001C58.3635 10.5001 58.7688 9.1001 59.4781 7.8001C60.2887 6.5001 61.302 5.5001 62.7205 4.7001C64.0378 4.0001 65.659 3.6001 67.3815 3.6001C68.9014 3.6001 70.32 3.9001 71.4345 4.5001C72.5491 5.1001 73.4611 5.8001 74.1703 6.7001C74.8796 7.6001 75.3862 8.6001 75.5889 9.7001H71.9412C71.6372 8.9001 71.1306 8.2001 70.32 7.7001C69.5094 7.1001 68.4961 6.9001 67.2802 6.9001C66.2669 6.9001 65.355 7.1001 64.5444 7.6001C63.7338 8.1001 63.1258 8.7001 62.6192 9.5001C62.2139 10.3001 61.9099 11.2001 61.9099 12.2001C61.9099 13.3001 62.1126 14.2001 62.5179 15.0001C62.9232 15.8001 63.5311 16.4001 64.3417 16.9001C65.1523 17.3001 66.0643 17.6001 67.0775 17.6001C68.2934 17.6001 69.408 17.3001 70.2186 16.7001C71.0292 16.1001 71.5359 15.3001 71.9412 14.4001H75.5889C75.2849 15.5001 74.7783 16.6001 74.069 17.6001C73.3597 18.6001 72.4478 19.4001 71.2319 20.0001C70.2186 20.3001 68.9014 20.6001 67.3815 20.6001Z" fill="#F5F5F5"></path><path d="M77.7168 20.2V8.49995H80.9592V10.2H81.0605C81.2632 9.59995 81.6685 9.19995 82.1751 8.79995C82.6818 8.39995 83.2897 8.19995 84.1003 8.19995H85.5189V11.3H83.7963C83.1884 11.3 82.6818 11.4 82.2765 11.6C81.8711 11.8 81.5672 12.1 81.2632 12.5C81.0605 12.9 80.9592 13.4 80.9592 13.9V20.1L77.7168 20.2Z" fill="#F5F5F5"></path><path d="M93.0171 20.5001C91.8012 20.5001 90.6866 20.2001 89.6733 19.7001C88.6601 19.1001 87.8495 18.4001 87.3428 17.4001C86.7349 16.4001 86.5322 15.4001 86.5322 14.3001C86.5322 13.2001 86.8362 12.1001 87.3428 11.2001C87.9508 10.2001 88.6601 9.5001 89.6733 8.9001C90.6866 8.3001 91.8012 8.1001 93.0171 8.1001C94.233 8.1001 95.3476 8.4001 96.3608 8.9001C97.3741 9.5001 98.1847 10.2001 98.6913 11.2001C99.2993 12.2001 99.5019 13.2001 99.5019 14.3001C99.5019 15.4001 99.1979 16.5001 98.6913 17.4001C98.0834 18.4001 97.3741 19.1001 96.3608 19.7001C95.3476 20.2001 94.233 20.5001 93.0171 20.5001ZM93.0171 17.7001C93.625 17.7001 94.1317 17.6001 94.6383 17.3001C95.1449 17.0001 95.5502 16.6001 95.7529 16.1001C96.0568 15.6001 96.1582 15.0001 96.1582 14.3001C96.1582 13.6001 96.0568 13.0001 95.7529 12.5001C95.4489 12.0001 95.0436 11.6001 94.6383 11.3001C94.1317 11.0001 93.625 10.9001 93.0171 10.9001C92.4091 10.9001 91.9025 11.0001 91.3959 11.3001C90.8892 11.6001 90.4839 12.0001 90.2813 12.5001C89.9773 13.0001 89.876 13.6001 89.876 14.3001C89.876 15.0001 89.9773 15.6001 90.2813 16.1001C90.5853 16.6001 90.9906 17.0001 91.3959 17.3001C91.9025 17.6001 92.4091 17.7001 93.0171 17.7001Z" fill="#F5F5F5"></path><path d="M106.493 20.5C105.379 20.5 104.365 20.3 103.555 19.9C102.744 19.5 102.035 19 101.63 18.4C101.123 17.8 100.819 17.1 100.616 16.4H103.96C104.163 16.8 104.467 17.2 104.872 17.5C105.277 17.8 105.885 17.9 106.493 17.9C107.203 17.9 107.709 17.8 108.013 17.6C108.317 17.4 108.419 17.1 108.419 16.7C108.419 16.5 108.317 16.3 108.115 16.1C107.912 16 107.608 15.8 107.304 15.8C107 15.8 106.493 15.6 105.987 15.5C104.973 15.3 104.163 15.1 103.454 14.8C102.846 14.6 102.238 14.2 101.731 13.7C101.224 13.2 101.022 12.5 101.022 11.6C101.022 11 101.224 10.4 101.63 9.8C102.035 9.3 102.643 8.8 103.352 8.5C104.163 8.2 104.973 8 106.088 8C107.709 8 109.026 8.4 109.938 9.1C110.85 9.8 111.458 10.7 111.661 11.8H108.419C108.317 11.5 108.013 11.2 107.608 11C107.203 10.8 106.696 10.7 106.088 10.7C105.683 10.7 105.379 10.7 105.176 10.8C104.973 10.9 104.771 11 104.669 11.1C104.568 11.2 104.467 11.4 104.467 11.6C104.467 11.8 104.568 12 104.771 12.2C104.973 12.4 105.277 12.5 105.581 12.5C105.885 12.6 106.392 12.7 106.899 12.8C107.912 13 108.723 13.2 109.432 13.5C110.04 13.7 110.648 14.1 111.154 14.6C111.661 15.1 111.864 15.8 111.864 16.7C111.864 17.4 111.661 18 111.256 18.6C110.85 19.2 110.242 19.6 109.432 20C108.621 20.3 107.608 20.5 106.493 20.5Z" fill="#F5F5F5"></path><path d="M118.855 20.5C117.74 20.5 116.727 20.3 115.916 19.9C115.106 19.5 114.397 19 113.991 18.4C113.485 17.8 113.181 17.1 112.978 16.4H116.322C116.524 16.8 116.828 17.2 117.234 17.5C117.639 17.8 118.247 17.9 118.855 17.9C119.564 17.9 120.071 17.8 120.375 17.6C120.679 17.4 120.78 17.1 120.78 16.7C120.78 16.5 120.679 16.3 120.476 16.1C120.273 16 119.969 15.8 119.666 15.8C119.362 15.7 118.855 15.6 118.348 15.5C117.335 15.3 116.524 15.1 115.815 14.8C115.207 14.6 114.599 14.2 114.093 13.7C113.586 13.2 113.383 12.5 113.383 11.6C113.383 11 113.586 10.4 113.991 9.8C114.397 9.3 115.005 8.8 115.714 8.5C116.524 8.2 117.335 8 118.45 8C120.071 8 121.388 8.4 122.3 9.1C123.212 9.8 123.82 10.7 124.023 11.8H120.78C120.679 11.5 120.375 11.2 119.97 11C119.564 10.8 119.058 10.7 118.45 10.7C118.044 10.7 117.74 10.7 117.538 10.8C117.335 10.9 117.132 11 117.031 11.1C116.93 11.2 116.828 11.4 116.828 11.6C116.828 11.8 116.93 12 117.132 12.2C117.335 12.4 117.639 12.5 117.943 12.5C118.247 12.6 118.754 12.7 119.26 12.8C120.273 13 121.084 13.2 121.793 13.5C122.401 13.7 123.009 14.1 123.516 14.6C124.023 15.1 124.225 15.8 124.225 16.7C124.225 17.4 124.023 18 123.617 18.6C123.212 19.2 122.604 19.6 121.793 20C120.983 20.3 119.97 20.5 118.855 20.5Z" fill="#F5F5F5"></path><path d="M128.076 20.2001V4.1001H139.931V7.3001H131.521V11.2001H138.006V14.3001H131.521V20.2001H128.076Z" fill="#F5F5F5"></path><path d="M143.477 6.9C142.971 6.9 142.565 6.7 142.16 6.4C141.755 6.1 141.653 5.7 141.653 5.2C141.653 4.7 141.856 4.3 142.16 4C142.565 3.7 142.971 3.5 143.477 3.5C143.984 3.5 144.389 3.7 144.794 4C145.2 4.3 145.301 4.7 145.301 5.2C145.301 5.7 145.098 6.1 144.794 6.4C144.389 6.8 143.984 6.9 143.477 6.9ZM141.856 20.2V8.5H145.098V20.2H141.856Z" fill="#F5F5F5"></path><path d="M78.6289 39.7999C77.413 39.7999 76.2984 39.4999 75.3865 38.9999C74.3732 38.4999 73.6639 37.6999 73.056 36.7999C72.448 35.8999 72.2454 34.7999 72.2454 33.6999C72.2454 32.5999 72.5493 31.5999 73.056 30.5999C73.6639 29.6999 74.3732 28.8999 75.3865 28.3999C76.3997 27.8999 77.413 27.5999 78.6289 27.5999C79.8448 27.5999 80.9594 27.8999 81.8713 28.3999C82.8846 28.8999 83.5938 29.6999 84.2018 30.5999C84.8097 31.4999 85.0124 32.5999 85.0124 33.6999C85.0124 34.7999 84.7084 35.7999 84.2018 36.7999C83.5938 37.6999 82.8846 38.4999 81.8713 38.9999C80.9594 39.4999 79.8448 39.7999 78.6289 39.7999ZM78.6289 37.0999C79.2368 37.0999 79.7435 36.9999 80.1488 36.6999C80.6554 36.3999 80.9594 35.9999 81.2633 35.4999C81.5673 34.9999 81.6686 34.3999 81.6686 33.6999C81.6686 32.9999 81.5673 32.3999 81.2633 31.8999C80.9594 31.3999 80.6554 30.9999 80.1488 30.6999C79.6421 30.3999 79.1355 30.2999 78.6289 30.2999C78.0209 30.2999 77.5143 30.3999 77.109 30.6999C76.6024 30.9999 76.2984 31.3999 75.9944 31.8999C75.6904 32.3999 75.5891 32.9999 75.5891 33.6999C75.5891 34.3999 75.6904 34.9999 75.9944 35.4999C76.2984 35.9999 76.6024 36.3999 77.109 36.6999C77.5143 36.9999 78.0209 37.0999 78.6289 37.0999Z" fill="#F5F5F5"></path><path d="M91.4969 39.7999C90.0784 39.7999 88.9638 39.3999 88.1532 38.4999C87.3426 37.6999 86.9373 36.4999 86.9373 34.8999V27.8999H90.1797V34.4999C90.1797 35.2999 90.3823 35.9999 90.7876 36.3999C91.1929 36.7999 91.8009 37.0999 92.5102 37.0999C93.0168 37.0999 93.4221 36.9999 93.8274 36.6999C94.2327 36.3999 94.5367 36.0999 94.8407 35.5999C95.0433 35.0999 95.246 34.5999 95.246 33.9999V27.8999H98.4884V39.3999H95.246V37.7999H95.1446C94.8407 38.2999 94.334 38.7999 93.7261 39.1999C93.1181 39.5999 92.4088 39.7999 91.4969 39.7999Z" fill="#F5F5F5"></path><path d="M101.123 39.4999V27.9999H104.365V29.5999H104.467C104.771 29.0999 105.277 28.5999 105.885 28.1999C106.493 27.7999 107.304 27.5999 108.115 27.5999C109.533 27.5999 110.648 27.9999 111.458 28.8999C112.269 29.6999 112.674 30.8999 112.674 32.4999V39.4999H109.432V32.8999C109.432 32.0999 109.229 31.3999 108.824 30.9999C108.418 30.5999 107.811 30.2999 107.101 30.2999C106.595 30.2999 106.189 30.3999 105.784 30.6999C105.379 30.9999 105.075 31.2999 104.771 31.7999C104.568 32.2999 104.365 32.7999 104.365 33.3999V39.4999H101.123Z" fill="#F5F5F5"></path><path d="M120.071 39.8C119.058 39.8 118.146 39.5 117.335 39C116.525 38.5 115.917 37.8 115.41 36.8C114.903 35.9 114.701 34.8 114.701 33.6C114.701 32.4 114.903 31.3 115.41 30.4C115.917 29.5 116.525 28.8 117.335 28.2C118.146 27.6 119.058 27.4 120.071 27.4C120.679 27.4 121.186 27.5 121.591 27.7C122.097 27.9 122.503 28.1 122.807 28.4C123.111 28.7 123.415 29 123.719 29.3H123.82V23.5H127.062V39.4H123.82V38H123.719C123.516 38.3 123.212 38.6 122.807 38.9C122.503 39.2 121.996 39.4 121.591 39.6C121.186 39.7 120.679 39.8 120.071 39.8ZM120.882 37.1C121.49 37.1 121.996 37 122.401 36.7C122.807 36.4 123.212 36 123.415 35.5C123.617 35 123.82 34.4 123.82 33.7C123.82 33 123.719 32.4 123.415 31.9C123.212 31.4 122.807 31 122.401 30.7C121.996 30.4 121.388 30.3 120.882 30.3C120.375 30.3 119.868 30.4 119.463 30.7C119.058 31 118.652 31.4 118.45 31.9C118.247 32.4 118.044 33 118.044 33.7C118.044 34.4 118.146 35 118.45 35.5C118.652 36 119.058 36.4 119.463 36.7C119.868 37 120.375 37.1 120.882 37.1Z" fill="#F5F5F5"></path><path d="M134.56 39.7999C133.547 39.7999 132.635 39.4999 131.825 38.9999C131.014 38.4999 130.406 37.7999 129.899 36.7999C129.393 35.8999 129.19 34.7999 129.19 33.5999C129.19 32.3999 129.393 31.2999 129.899 30.3999C130.406 29.4999 131.014 28.7999 131.825 28.1999C132.635 27.6999 133.547 27.3999 134.56 27.3999C135.168 27.3999 135.675 27.4999 136.08 27.6999C136.587 27.8999 136.992 28.0999 137.296 28.3999C137.6 28.6999 137.904 28.9999 138.208 29.2999H138.309V27.7999H141.552V39.2999H138.309V37.9999H138.208C138.006 38.2999 137.702 38.5999 137.296 38.8999C136.992 39.1999 136.486 39.3999 136.08 39.5999C135.675 39.6999 135.067 39.7999 134.56 39.7999ZM135.371 37.0999C135.979 37.0999 136.486 36.9999 136.891 36.6999C137.296 36.3999 137.702 35.9999 137.904 35.4999C138.107 34.9999 138.309 34.3999 138.309 33.6999C138.309 32.9999 138.208 32.3999 137.904 31.8999C137.702 31.3999 137.296 30.9999 136.891 30.6999C136.486 30.3999 135.878 30.2999 135.371 30.2999C134.864 30.2999 134.358 30.3999 133.952 30.6999C133.547 30.9999 133.142 31.3999 132.939 31.8999C132.737 32.3999 132.534 32.9999 132.534 33.6999C132.534 34.3999 132.635 34.9999 132.939 35.4999C133.142 35.9999 133.547 36.3999 133.952 36.6999C134.358 36.9999 134.763 37.0999 135.371 37.0999Z" fill="#F5F5F5"></path><path d="M144.693 39.5V30.7H143.275V28H144.795V25.5H148.037V28H151.381V30.7H148.037V36.8H151.482V39.5H144.693Z" fill="#F5F5F5"></path><path d="M154.724 26.5001C154.218 26.5001 153.812 26.3001 153.407 26.0001C153.002 25.7001 152.9 25.3001 152.9 24.8001C152.9 24.3001 153.103 24.0001 153.407 23.6001C153.812 23.3001 154.218 23.1001 154.724 23.1001C155.231 23.1001 155.636 23.3001 156.041 23.6001C156.447 23.9001 156.548 24.3001 156.548 24.8001C156.548 25.3001 156.345 25.6001 156.041 26.0001C155.738 26.3001 155.231 26.5001 154.724 26.5001ZM153.204 39.5001V28.0001H156.447V39.5001H153.204Z" fill="#F5F5F5"></path><path d="M164.654 39.7999C163.438 39.7999 162.324 39.4999 161.412 38.9999C160.399 38.4999 159.689 37.6999 159.081 36.7999C158.473 35.8999 158.271 34.7999 158.271 33.6999C158.271 32.5999 158.575 31.5999 159.081 30.5999C159.689 29.6999 160.399 28.8999 161.412 28.3999C162.425 27.8999 163.438 27.5999 164.654 27.5999C165.87 27.5999 166.985 27.8999 167.897 28.3999C168.91 28.8999 169.619 29.6999 170.227 30.5999C170.835 31.4999 171.038 32.5999 171.038 33.6999C171.038 34.7999 170.734 35.7999 170.227 36.7999C169.619 37.6999 168.91 38.4999 167.897 38.9999C166.985 39.4999 165.87 39.7999 164.654 39.7999ZM164.654 37.0999C165.262 37.0999 165.769 36.9999 166.174 36.6999C166.681 36.3999 166.985 35.9999 167.289 35.4999C167.593 34.9999 167.694 34.3999 167.694 33.6999C167.694 32.9999 167.593 32.3999 167.289 31.8999C166.985 31.3999 166.681 30.9999 166.174 30.6999C165.668 30.3999 165.161 30.2999 164.654 30.2999C164.046 30.2999 163.54 30.3999 163.134 30.6999C162.628 30.9999 162.324 31.3999 162.02 31.8999C161.716 32.3999 161.615 32.9999 161.615 33.6999C161.615 34.3999 161.716 34.9999 162.02 35.4999C162.324 35.9999 162.628 36.3999 163.134 36.6999C163.54 36.9999 164.148 37.0999 164.654 37.0999Z" fill="#F5F5F5"></path><path d="M173.064 39.4999V27.9999H176.307V29.5999H176.408C176.712 29.0999 177.219 28.5999 177.827 28.1999C178.434 27.7999 179.245 27.5999 180.056 27.5999C181.474 27.5999 182.589 27.9999 183.399 28.8999C184.21 29.6999 184.615 30.8999 184.615 32.4999V39.4999H181.373V32.8999C181.373 32.0999 181.17 31.3999 180.765 30.9999C180.36 30.5999 179.752 30.2999 179.042 30.2999C178.536 30.2999 178.13 30.3999 177.725 30.6999C177.32 30.9999 177.016 31.2999 176.712 31.7999C176.509 32.2999 176.307 32.7999 176.307 33.3999V39.4999H173.064Z" fill="#F5F5F5"></path><path d="M59.8833 39.4999V23.3999H71.7384V26.5999H63.3284V30.4999H69.8132V33.5999H63.3284V39.4999H59.8833Z" fill="#F5F5F5"></path></g><defs><linearGradient id="paint0_linear_3529_31191" x1="8.16685" y1="9.97" x2="41.619" y2="40.5583" gradientUnits="userSpaceOnUse"><stop stop-color="#60CDD0"></stop><stop offset="1" stop-color="#19B9BE"></stop></linearGradient><clipPath id="clip0_3529_31191"><rect width="184.615" height="45" fill="white" transform="translate(0 0.5)"></rect></clipPath></defs></svg> 