<?xml version="1.0" encoding="UTF-8"?> <svg xmlns="http://www.w3.org/2000/svg" width="167" height="40" viewBox="0 0 167 40" fill="none"><path d="M9.67716 0.350185L9.62866 0.322404L9.58038 0.350565L0.951283 5.38414L0.903313 5.41212V5.46765V15.4881V15.5438L0.95146 15.5717L8.12311 19.7348L0.95146 23.8979L0.903313 23.9258V23.9815V33.921V33.976L0.950676 34.0041L9.57762 39.121L9.6262 39.1498L9.67516 39.1217L17.0288 34.8914L17.0295 34.891L25.703 30.0038L34.3766 34.8918L34.3772 34.8922L41.7454 39.1205L41.7941 39.1485L41.8425 39.12L50.5486 34.0063L50.5963 33.9782V33.9229V23.9805V23.9247L50.548 23.8968L43.3431 19.7348L50.548 15.5728L50.5963 15.5449V15.4891V5.46573V5.40993L50.548 5.38201L41.8397 0.351551L41.7916 0.323764L41.7434 0.351325L25.6918 9.52371L9.67716 0.350185ZM2.45756 7.20531L16.1113 15.0978L9.67106 18.8362L2.45756 14.6489V7.20531ZM17.6602 14.1978L3.22801 5.85542L9.63573 2.11764L24.1377 10.4247L17.6602 14.1978ZM32.1957 15.0878L25.6922 18.7637L19.2202 15.0878L25.6922 11.3178L32.1957 15.0878ZM49.042 14.6478L41.7895 18.8373L35.316 15.0978L49.042 7.20204V14.6478ZM48.2631 5.85706L33.7614 14.1989L27.2492 10.4239L41.7874 2.11628L48.2631 5.85706ZM48.2655 24.3733L41.7907 28.1135L27.2541 19.6662L33.7557 15.9914L48.2655 24.3733ZM42.5667 36.8921V29.4602L49.042 25.7197V33.0886L42.5667 36.8921ZM26.4684 21.0073L41.0124 29.4589V36.9079L26.4684 28.5616V21.0073ZM24.9142 21.0089V28.5622L10.4093 36.9063V29.4584L24.9142 21.0089ZM9.63246 28.1122L3.22558 24.3749L17.6659 15.9925L24.1328 19.6654L9.63246 28.1122ZM2.45756 33.0908V25.7263L8.85507 29.458V36.8854L2.45756 33.0908Z" fill="#0CC2FF" stroke="#0CC2FF" stroke-width="0.193374"></path><path d="M71.5098 2.90771L73.3413 4.7392V7.79941H71.1388V5.64335L70.6056 5.11014H64.4852L63.952 5.64335V14.824L64.4852 15.3572H70.6056L71.1388 14.824V12.6679H73.3413V15.7281L71.5098 17.5596H63.5811L61.7496 15.7281V4.7392L63.5811 2.90771H71.5098Z" fill="white"></path><path d="M87.0336 2.90771L88.8651 4.7392V10.8364L87.0336 12.6679H83.9734L88.8651 17.5596H85.7585L80.8668 12.6679H79.4758V17.5596H77.2734V2.90771H87.0336ZM86.6626 9.93228V5.64335L86.1294 5.11014H79.4758V10.4655H86.1294L86.6626 9.93228Z" fill="white"></path><path d="M102.557 2.90771L104.389 4.7392V15.7281L102.557 17.5596H94.6287L92.7972 15.7281V4.7392L94.6287 2.90771H102.557ZM102.186 14.824V5.64335L101.653 5.11014H95.5328L94.9996 5.64335V14.824L95.5328 15.3572H101.653L102.186 14.824Z" fill="white"></path><path d="M118.081 2.90771L119.913 4.7392V7.17346H117.71V5.64335L117.177 5.11014H111.057L110.523 5.64335V8.28626L111.057 8.81948H118.081L119.913 10.651V15.7281L118.081 17.5596H110.152L108.321 15.7281V13.2939H110.523V14.824L111.057 15.3572H117.177L117.71 14.824V11.5551L117.177 11.0219H110.152L108.321 9.19041V4.7392L110.152 2.90771H118.081Z" fill="white"></path><path d="M133.605 2.90771L135.436 4.7392V7.17346H133.234V5.64335L132.701 5.11014H126.58L126.047 5.64335V8.28626L126.58 8.81948H133.605L135.436 10.651V15.7281L133.605 17.5596H125.676L123.845 15.7281V13.2939H126.047V14.824L126.58 15.3572H132.701L133.234 14.824V11.5551L132.701 11.0219H125.676L123.845 9.19041V4.7392L125.676 2.90771H133.605Z" fill="white"></path><path d="M142.104 5.11014L141.571 5.64335V8.63401H148.526V10.8364H141.571V17.5596H139.369V4.7392L141.2 2.90771H150.96V5.11014H142.104Z" fill="white"></path><path d="M161.801 5.11014V15.3572H166.484V17.5596H154.892V15.3572H159.599V5.11014H154.892V2.90771H166.484V5.11014H161.801Z" fill="white"></path><path d="M112.413 21.9511L112.368 21.906H112.304H104.455H104.392L104.347 21.9511L102.534 23.7641L102.488 23.8092V23.873V36.5638V36.7179H102.642H104.823H104.977V36.5638V31.8756H112.304H112.368L112.413 31.8305L114.226 30.0175L114.271 29.9724V29.9086V23.873V23.8092L114.226 23.7641L112.413 21.9511ZM111.345 24.3943L111.783 24.8318V28.9498L111.345 29.3874H104.977V24.8318L105.414 24.3943H111.345Z" fill="#0CC2FF" stroke="#0CC2FF" stroke-width="0.308079"></path><path d="M98.6525 21.9511L98.6074 21.906H98.5436H90.695H90.6312L90.5861 21.9511L88.7731 23.7641L88.728 23.8092V23.873V36.5638V36.7179H88.882H91.0622H91.2162V36.5638V31.8756H98.5436H98.6074L98.6525 31.8305L100.465 30.0175L100.511 29.9724V29.9086V23.873V23.8092L100.465 23.7641L98.6525 21.9511ZM97.5847 24.3943L98.0223 24.8318V28.9498L97.5847 29.3874H91.2162V24.8318L91.6538 24.3943H97.5847Z" fill="#0CC2FF" stroke="#0CC2FF" stroke-width="0.308079"></path><path d="M84.892 21.9511L84.8469 21.906H84.7831H76.9345H76.8707L76.8256 21.9511L75.0126 23.7641L74.9675 23.8092V23.873V36.5638V36.7179H75.1215H77.3017H77.4557V36.5638V32.4953H84.2618V36.5638V36.7179H84.4159H86.596H86.7501V36.5638V23.873V23.8092L86.705 23.7641L84.892 21.9511ZM84.2618 24.8318V30.007H77.4557V24.8318L77.8933 24.3943H83.8242L84.2618 24.8318Z" fill="#0CC2FF" stroke="#0CC2FF" stroke-width="0.308079"></path><path d="M61.8863 36.5083L61.7477 36.6417H61.9401H64.1606H64.1923L64.2149 36.6195L66.8527 34.0273L69.4905 36.6195L69.5131 36.6417H69.5449H71.7654H71.9585L71.819 36.5082L68.0653 32.9134L71.819 29.3187L71.9585 29.1851H71.7654H69.5449H69.5131L69.4905 29.2074L66.8527 31.7996L64.2149 29.2074L64.1923 29.1851H64.1606H61.9401H61.7477L61.8863 29.3186L65.6208 32.9134L61.8863 36.5083Z" fill="#0CC2FF" stroke="#0CC2FF" stroke-width="0.155093"></path></svg> 